<?xml version="1.0" encoding="UTF-8" standalone="no"?>
<!DOCTYPE svg PUBLIC "-//W3C//DTD SVG 1.1//EN" "http://www.w3.org/Graphics/SVG/1.1/DTD/svg11.dtd">
<svg id="Iconic_Mark" xmlns="http://www.w3.org/2000/svg" preserveAspectRatio="xMidYMid meet"  viewBox="0 0 2048 1018.83" width="80.80" height="65.41">
    <path style="fill:#374c27" d="M1041.07 609.84H882.66l-12.91 43.71c-5.4 18.28-22.19 30.83-41.25 30.83h-48.21c-30.04 0-50.83-30.02-40.26-58.14l137.38-365.52c6.3-16.77 22.34-27.88 40.26-27.88h92.63c17.92 0 33.96 11.11 40.26 27.88l137.35 365.52c10.57 28.12-10.22 58.14-40.26 58.14h-52.1c-18.95 0-35.66-12.4-41.16-30.53l-13.34-44Zm-28.94-97.64-49.84-162.32-49.32 162.32h99.16Z"/>
    <circle cx="1496.49" cy="471.14" r="205.91" style="stroke-width:100px;fill:none;stroke:#374c27;stroke-miterlimit:10"/>
    <path style="stroke-linecap:round;fill:none;stroke:#374c27;stroke-miterlimit:10;stroke-width:170px" d="m1747.13 716.82 112.26 112.27"/>
    <path d="M1398.49 466.18c0-54.12 43.88-97.99 98-97.99" style="stroke-width:40px;stroke-linecap:round;fill:none;stroke:#374c27;stroke-miterlimit:10"/>
    <path style="fill:#374c27" d="M220.03 264.36c0-23.75 19.26-43.01 43.01-43.01h218.18c43.53 0 76.95 10.78 100.26 32.34 23.3 21.56 34.96 48.26 34.96 80.08 0 26.7-8.32 49.59-24.95 68.69-11.09 12.73-27.31 22.79-48.67 30.18 32.44 7.81 56.31 21.21 71.61 40.2 15.29 19 22.95 42.87 22.95 71.61 0 23.41-5.44 44.46-16.32 63.14-10.89 18.69-25.77 33.47-44.66 44.35-11.7 6.78-29.37 11.7-52.98 14.78-31.42 4.11-52.26 6.16-62.53 6.16H263.04c-23.75 0-43.01-19.26-43.01-43.01V264.36Zm140.76 134.1h60.68c21.76 0 36.91-3.74 45.43-11.24 8.52-7.49 12.78-18.33 12.78-32.49 0-13.14-4.26-23.41-12.78-30.8-8.52-7.39-23.36-11.09-44.51-11.09h-61.6v85.63Zm0 177.41h71.15c24.02 0 40.97-4.26 50.82-12.78 9.86-8.52 14.78-19.97 14.78-34.34 0-13.35-4.88-24.07-14.63-32.19-9.76-8.11-26.85-12.17-51.28-12.17h-70.84v91.48Z"/>
</svg>
